# xmcd CD database file
#
# Track frame offsets:
#	182
#	24982
#	51625
#	79900
#	103865
#	122432
#	148595
#	170345
#	188002
#	208675
#
# Disc length: 3188 seconds
#
# Revision: 0
# Processed by: cddbd v1.5PL3 Copyright (c) Steve Scherf et al.
# Submitted via: CDex 1.51
#
DISCID=880c720a
DTITLE=Tissendier, Claude Saxomania and Clark Terry - A tale of two cities
DYEAR=1900
DGENRE=Jazz
TTITLE0=Jones
TTITLE1=Limehouse Blues
TTITLE2=Chelsea Bridge
TTITLE3=Can't we be friends
TTITLE4=Top'n'bottom
TTITLE5=My funny valentine
TTITLE6=Candy
TTITLE7=Three Little Words
TTITLE8=A New York tourist in Paris
TTITLE9=T.P. Time
EXTD=
EXTT0=
EXTT1=
EXTT2=
EXTT3=
EXTT4=
EXTT5=
EXTT6=
EXTT7=
EXTT8=
EXTT9=
PLAYORDER=
